<?xml version="1.0" encoding="iso-8859-1"?>
<!-- Generator: Adobe Illustrator 19.0.0, SVG Export Plug-In . SVG Version: 6.00 Build 0)  -->
<svg version="1.1" id="Capa_1" xmlns="http://www.w3.org/2000/svg" xmlns:xlink="http://www.w3.org/1999/xlink" x="0px" y="0px"
	 viewBox="0 0 512 512" style="enable-background:new 0 0 512 512;" xml:space="preserve" fill="#0d317e">
<g>
	<g>
		<path d="M480,159.999h-96v21.333h96c5.891,0,10.667,4.776,10.667,10.667v234.667c0,5.891-4.776,10.667-10.667,10.667H32
			c-5.891,0-10.667-4.776-10.667-10.667V191.999c0-5.891,4.776-10.667,10.667-10.667h96v-21.333H32c-17.673,0-32,14.327-32,32
			v234.667c0,17.673,14.327,32,32,32h448c17.673,0,32-14.327,32-32V191.999C512,174.326,497.673,159.999,480,159.999z"/>
	</g>
</g>
<g>
	<g>
		<path d="M116.448,394.666c-4.588-26.838-25.61-47.86-52.448-52.448v-65.771c26.838-4.588,47.86-25.61,52.448-52.448H128v-21.333
			h-21.333c-5.891,0-10.667,4.776-10.667,10.667c0,23.564-19.103,42.667-42.667,42.667c-5.891,0-10.667,4.776-10.667,10.667v85.333
			c0,5.891,4.776,10.667,10.667,10.667c23.564,0,42.667,19.102,42.667,42.667c0,5.891,4.776,10.667,10.667,10.667H160v-21.333
			H116.448z"/>
	</g>
</g>
<g>
	<g>
		<path d="M458.667,255.999c-23.564,0-42.667-19.103-42.667-42.667c0-5.891-4.776-10.667-10.667-10.667H384v21.333h11.552
			c4.588,26.838,25.61,47.86,52.448,52.448v65.771c-26.838,4.588-47.86,25.61-52.448,52.448H352v21.333h53.333
			c5.891,0,10.667-4.776,10.667-10.667c0-23.564,19.103-42.667,42.667-42.667c5.891,0,10.667-4.776,10.667-10.667v-85.333
			C469.333,260.775,464.558,255.999,458.667,255.999z"/>
	</g>
</g>
<g>
	<g>
		<rect x="42.667" y="202.666" width="21.333" height="21.333"/>
	</g>
</g>
<g>
	<g>
		<rect x="448" y="202.666" width="21.333" height="21.333"/>
	</g>
</g>
<g>
	<g>
		<rect x="448" y="394.666" width="21.333" height="21.333"/>
	</g>
</g>
<g>
	<g>
		<rect x="42.667" y="394.666" width="21.333" height="21.333"/>
	</g>
</g>
<g>
	<g>
		<path d="M341.333,63.999v245.333c0,47.128-38.205,85.333-85.333,85.333s-85.333-38.205-85.333-85.333V63.999h-21.333v245.333
			c0.065,58.884,47.783,106.602,106.667,106.667c58.884-0.065,106.602-47.783,106.667-106.667V63.999H341.333z"/>
	</g>
</g>
<g>
	<g>
		<path d="M167.541,56.458c-4.165-4.164-10.917-4.164-15.083,0l-53.333,53.333l15.083,15.083L160,79.082l45.792,45.792
			l15.083-15.083L167.541,56.458z"/>
	</g>
</g>
<g>
	<g>
		<path d="M359.541,56.458c-4.165-4.164-10.917-4.164-15.083,0l-53.333,53.333l15.083,15.083L352,79.082l45.792,45.792
			l15.083-15.083L359.541,56.458z"/>
	</g>
</g>
<g>
	<g>
		<path d="M298.667,266.666v-10.667c0-11.782-9.551-21.333-21.333-21.333h-42.667c-11.782,0-21.333,9.551-21.333,21.333v21.333
			c0,11.782,9.551,21.333,21.333,21.333h42.667v21.333h-42.667v-10.667h-21.333v10.667c0,11.782,9.551,21.333,21.333,21.333h42.667
			c11.782,0,21.333-9.551,21.333-21.333v-21.333c0-11.782-9.551-21.333-21.333-21.333h-42.667v-21.333h42.667v10.667H298.667z"/>
	</g>
</g>
<g>
	<g>
		<rect x="245.333" y="213.332" width="21.333" height="32"/>
	</g>
</g>
<g>
	<g>
		<rect x="245.333" y="330.666" width="21.333" height="32"/>
	</g>
</g>
<g>
	<g>
		<rect x="245.333" y="159.999" width="21.333" height="21.333"/>
	</g>
</g>
<g>
	<g>
		<rect x="288" y="159.999" width="21.333" height="21.333"/>
	</g>
</g>
<g>
	<g>
		<rect x="202.667" y="159.999" width="21.333" height="21.333"/>
	</g>
</g>
<g>
</g>
<g>
</g>
<g>
</g>
<g>
</g>
<g>
</g>
<g>
</g>
<g>
</g>
<g>
</g>
<g>
</g>
<g>
</g>
<g>
</g>
<g>
</g>
<g>
</g>
<g>
</g>
<g>
</g>
</svg>
